# xmcd
#
# Track frame offsets: 
#        150
#        16434
#        30389
#        43234
#        58431
#        72210
#        89253
#        100320
#        115122
#        134197
#        149122
#        165028
#
# Disc length: 2351 seconds
#
# Revision: 1
# Processed by: cddbd v1.5.2PL0 Copyright (c) Steve Scherf et al.
# Submitted via: ExactAudioCopyFreeDBPlugin 1.0
#
DISCID=ae092d0c
DTITLE=St. Paul and the Broken Bones - Half the City
DYEAR=2014
DGENRE=Soul
TTITLE0=I'm Torn Up
TTITLE1=Don't Mean a Thing
TTITLE2=Call Me
TTITLE3=Like a Mighty River
TTITLE4=That Glow
TTITLE5=Broken Bones and Pocket Change
TTITLE6=Sugar Dyed
TTITLE7=Half the City
TTITLE8=Grass is Greener
TTITLE9=Let it Be So
TTITLE10=Dixie Rothko
TTITLE11=It's Midnight
EXTD=
EXTT0=
EXTT1=
EXTT2=
EXTT3=
EXTT4=
EXTT5=
EXTT6=
EXTT7=
EXTT8=
EXTT9=
EXTT10=
EXTT11=
PLAYORDER=
